<?xml version="1.0" encoding="utf-8"?>
<!-- Generator: Adobe Illustrator 16.0.0, SVG Export Plug-In . SVG Version: 6.00 Build 0)  -->
<!DOCTYPE svg PUBLIC "-//W3C//DTD SVG 1.1//EN" "http://www.w3.org/Graphics/SVG/1.1/DTD/svg11.dtd">
<svg version="1.1" id="Capa_1" xmlns="http://www.w3.org/2000/svg" xmlns:xlink="http://www.w3.org/1999/xlink" x="0px" y="0px"
	 width="512px" height="512px" viewBox="50 140 512 512" enable-background="new 50 140 512 512" xml:space="preserve">
<g>
	<g id="Guides_For_Artboard_20_">
	</g>
	<g id="Artwork_19_">
	</g>
	<g id="Layer_2_19_">
		<g>
			<path fill="#E74424" d="M254.494,313.441c1.038-2.892,3.946-4.673,6.995-4.274c3.047,0.396,5.406,2.862,5.667,5.923
				L277.6,437.111l19.558-70.494c0.799-2.882,3.44-4.862,6.442-4.787c2.988,0.066,5.553,2.153,6.225,5.066l10.891,47.247
				l18.596-78.127c0.726-3.057,3.529-5.15,6.664-5.016c3.139,0.149,5.729,2.511,6.165,5.622l13.876,98.934l6.223-20.107
				c0.848-2.737,3.379-4.602,6.244-4.602h147.168v-33.689c0-31.098-25.213-56.317-56.33-56.317h-89.412v-89.415
				c0-31.113-25.213-56.322-56.322-56.322h-32.531h-5.132c-31.104,0-56.33,25.211-56.33,56.322v89.414h-89.417
				c-31.088,0-56.313,25.219-56.313,56.318v34.407h135.422L254.494,313.441z"/>
			<path fill="#E74424" d="M369.852,467.375c-0.906,2.922-3.725,4.83-6.768,4.582c-3.052-0.248-5.523-2.576-5.947-5.607
				l-13.131-93.613l-17.035,71.576c-0.701,2.945-3.332,5.023-6.356,5.023c-0.007,0-0.017,0-0.024,0
				c-3.035-0.012-5.663-2.109-6.345-5.068l-11.373-49.344l-22.386,80.689c-0.793,2.85-3.387,4.785-6.294,4.785
				c-0.201,0-0.404-0.008-0.608-0.025c-3.151-0.295-5.638-2.799-5.907-5.951l-10.989-128.39l-26.65,74.276
				c-0.932,2.6-3.392,4.329-6.152,4.329H84.733c4.645,26.425,27.702,46.509,55.445,46.509h89.417v89.416
				c0,31.113,25.227,56.334,56.33,56.334h5.132h32.531c31.11,0,56.322-25.223,56.322-56.334v-89.416h89.412
				c28.021,0,51.244-20.447,55.59-47.229H383.301L369.852,467.375z"/>
			<path fill="#F7F1E6" d="M548.467,410.847h-22.814h-147.17c-2.863,0-5.396,1.866-6.244,4.602l-6.221,20.108l-13.877-98.935
				c-0.437-3.11-3.026-5.473-6.164-5.622c-3.135-0.134-5.939,1.959-6.665,5.016l-18.595,78.127l-10.891-47.247
				c-0.672-2.914-3.236-5-6.225-5.066c-3.002-0.075-5.643,1.906-6.443,4.787l-19.557,70.494L267.157,315.09
				c-0.261-3.061-2.619-5.528-5.667-5.923c-3.05-0.399-5.957,1.382-6.995,4.274l-35.207,98.125H83.865H63.537
				c-3.609,0-6.536,2.926-6.536,6.536c0,3.608,2.925,6.535,6.536,6.535h21.196h139.151c2.76,0,5.22-1.729,6.151-4.329l26.65-74.276
				l10.989,128.39c0.27,3.152,2.757,5.656,5.907,5.951c0.204,0.018,0.408,0.025,0.608,0.025c2.909,0,5.501-1.936,6.294-4.785
				l22.386-80.69l11.373,49.344c0.682,2.96,3.311,5.056,6.346,5.067c0.008,0,0.017,0,0.023,0c3.025,0,5.656-2.076,6.357-5.022
				l17.035-71.575l13.131,93.613c0.424,3.031,2.896,5.359,5.947,5.607c3.041,0.248,5.861-1.66,6.768-4.582l13.449-43.459h141.609
				h23.559c3.607,0,6.533-2.925,6.533-6.534C555.002,413.771,552.076,410.847,548.467,410.847z"/>
		</g>
	</g>
</g>
</svg>
